<mxfile host="app.diagrams.net" modified="2023-09-20T13:16:00.662Z" agent="Mozilla/5.0 (Macintosh; Intel Mac OS X 10_15_7) AppleWebKit/537.36 (KHTML, like Gecko) Chrome/117.0.0.0 Safari/537.36" etag="hV7rviyqnpSDH3sRmOXa" version="21.6.1" type="device">
  <diagram name="ページ1" id="N4X7iC3FwvP-9spLoHvI">
    <mxGraphModel dx="1434" dy="-30" grid="1" gridSize="10" guides="1" tooltips="1" connect="1" arrows="1" fold="1" page="1" pageScale="1" pageWidth="1169" pageHeight="827" math="0" shadow="0">
      <root>
        <mxCell id="0" />
        <mxCell id="1" parent="0" />
        <mxCell id="5nWp3kDjjZpovWfEtGyb-13" value="" style="endArrow=none;html=1;rounded=0;strokeWidth=6;" edge="1" parent="1">
          <mxGeometry width="50" height="50" relative="1" as="geometry">
            <mxPoint x="340" y="1510" as="sourcePoint" />
            <mxPoint x="1160" y="1510" as="targetPoint" />
          </mxGeometry>
        </mxCell>
        <mxCell id="5nWp3kDjjZpovWfEtGyb-11" value="" style="rounded=0;whiteSpace=wrap;html=1;dashed=1;" vertex="1" parent="1">
          <mxGeometry x="700" y="1150" width="320" height="130" as="geometry" />
        </mxCell>
        <mxCell id="zv-5xnGO9yxqkZcnvnEC-6" value="" style="endArrow=none;html=1;rounded=0;strokeWidth=3;endFill=0;" parent="1" edge="1">
          <mxGeometry width="50" height="50" relative="1" as="geometry">
            <mxPoint x="510" y="1180" as="sourcePoint" />
            <mxPoint x="510" y="1180" as="targetPoint" />
            <Array as="points">
              <mxPoint x="510" y="1180" />
            </Array>
          </mxGeometry>
        </mxCell>
        <mxCell id="5nWp3kDjjZpovWfEtGyb-10" value="" style="edgeStyle=orthogonalEdgeStyle;rounded=0;orthogonalLoop=1;jettySize=auto;html=1;strokeWidth=2;startArrow=block;startFill=1;endArrow=block;endFill=1;fillColor=#d5e8d4;strokeColor=#82b366;" edge="1" parent="1" source="5nWp3kDjjZpovWfEtGyb-1" target="5nWp3kDjjZpovWfEtGyb-7">
          <mxGeometry relative="1" as="geometry" />
        </mxCell>
        <mxCell id="5nWp3kDjjZpovWfEtGyb-1" value="Arduino&lt;br&gt;Nano Every" style="rounded=0;whiteSpace=wrap;html=1;" vertex="1" parent="1">
          <mxGeometry x="520" y="1200" width="120" height="60" as="geometry" />
        </mxCell>
        <mxCell id="5nWp3kDjjZpovWfEtGyb-5" value="" style="endArrow=none;html=1;rounded=0;shape=link;fillColor=#dae8fc;strokeColor=#6c8ebf;strokeWidth=4;" edge="1" parent="1">
          <mxGeometry width="50" height="50" relative="1" as="geometry">
            <mxPoint x="1080" y="1510" as="sourcePoint" />
            <mxPoint x="1080" y="1040" as="targetPoint" />
          </mxGeometry>
        </mxCell>
        <mxCell id="5nWp3kDjjZpovWfEtGyb-8" style="edgeStyle=orthogonalEdgeStyle;rounded=0;orthogonalLoop=1;jettySize=auto;html=1;endArrow=block;endFill=1;fillColor=#dae8fc;strokeColor=#6c8ebf;strokeWidth=2;startArrow=block;startFill=1;" edge="1" parent="1" source="5nWp3kDjjZpovWfEtGyb-6">
          <mxGeometry relative="1" as="geometry">
            <mxPoint x="1080" y="1230" as="targetPoint" />
          </mxGeometry>
        </mxCell>
        <mxCell id="5nWp3kDjjZpovWfEtGyb-6" value="CAN トランシーバー&lt;br&gt;MCP2562" style="rounded=0;whiteSpace=wrap;html=1;" vertex="1" parent="1">
          <mxGeometry x="880" y="1200" width="120" height="60" as="geometry" />
        </mxCell>
        <mxCell id="5nWp3kDjjZpovWfEtGyb-9" value="" style="edgeStyle=orthogonalEdgeStyle;rounded=0;orthogonalLoop=1;jettySize=auto;html=1;fillColor=#dae8fc;strokeColor=#6c8ebf;strokeWidth=2;endArrow=block;endFill=1;startArrow=block;startFill=1;" edge="1" parent="1" source="5nWp3kDjjZpovWfEtGyb-7" target="5nWp3kDjjZpovWfEtGyb-6">
          <mxGeometry relative="1" as="geometry" />
        </mxCell>
        <mxCell id="5nWp3kDjjZpovWfEtGyb-7" value="CAN コントローラー&lt;br&gt;MCP2515" style="rounded=0;whiteSpace=wrap;html=1;" vertex="1" parent="1">
          <mxGeometry x="720" y="1200" width="120" height="60" as="geometry" />
        </mxCell>
        <mxCell id="5nWp3kDjjZpovWfEtGyb-41" style="edgeStyle=orthogonalEdgeStyle;rounded=0;orthogonalLoop=1;jettySize=auto;html=1;entryX=0.25;entryY=1;entryDx=0;entryDy=0;fillColor=#e1d5e7;strokeColor=#9673a6;strokeWidth=2;" edge="1" parent="1" source="5nWp3kDjjZpovWfEtGyb-14" target="5nWp3kDjjZpovWfEtGyb-1">
          <mxGeometry relative="1" as="geometry" />
        </mxCell>
        <mxCell id="5nWp3kDjjZpovWfEtGyb-14" value="GSE" style="rounded=0;whiteSpace=wrap;html=1;" vertex="1" parent="1">
          <mxGeometry x="520" y="1490" width="60" height="20" as="geometry" />
        </mxCell>
        <mxCell id="5nWp3kDjjZpovWfEtGyb-15" value="LPF" style="rounded=1;whiteSpace=wrap;html=1;" vertex="1" parent="1">
          <mxGeometry x="880" y="1405" width="60" height="30" as="geometry" />
        </mxCell>
        <mxCell id="5nWp3kDjjZpovWfEtGyb-16" value="" style="endArrow=none;startArrow=block;html=1;rounded=0;fillColor=#ffe6cc;strokeColor=#d79b00;strokeWidth=2;endFill=0;startFill=1;" edge="1" parent="1">
          <mxGeometry width="50" height="50" relative="1" as="geometry">
            <mxPoint x="579" y="1200" as="sourcePoint" />
            <mxPoint x="579" y="1120" as="targetPoint" />
          </mxGeometry>
        </mxCell>
        <mxCell id="5nWp3kDjjZpovWfEtGyb-17" value="" style="endArrow=none;html=1;rounded=0;strokeWidth=1;" edge="1" parent="1">
          <mxGeometry width="50" height="50" relative="1" as="geometry">
            <mxPoint x="400" y="1200" as="sourcePoint" />
            <mxPoint x="420" y="1160" as="targetPoint" />
          </mxGeometry>
        </mxCell>
        <mxCell id="5nWp3kDjjZpovWfEtGyb-18" value="" style="endArrow=none;startArrow=none;html=1;rounded=0;startFill=0;endFill=0;endSize=6;strokeWidth=1;" edge="1" parent="1">
          <mxGeometry width="50" height="50" relative="1" as="geometry">
            <mxPoint x="400" y="1200" as="sourcePoint" />
            <mxPoint x="380" y="1160" as="targetPoint" />
          </mxGeometry>
        </mxCell>
        <mxCell id="5nWp3kDjjZpovWfEtGyb-19" value="" style="endArrow=none;html=1;rounded=0;exitX=0;exitY=0.5;exitDx=0;exitDy=0;strokeWidth=1;" edge="1" parent="1" source="5nWp3kDjjZpovWfEtGyb-1">
          <mxGeometry width="50" height="50" relative="1" as="geometry">
            <mxPoint x="400" y="1260" as="sourcePoint" />
            <mxPoint x="400" y="1160" as="targetPoint" />
            <Array as="points">
              <mxPoint x="400" y="1230" />
            </Array>
          </mxGeometry>
        </mxCell>
        <mxCell id="5nWp3kDjjZpovWfEtGyb-20" value="LoRa" style="text;html=1;strokeColor=none;fillColor=none;align=left;verticalAlign=middle;whiteSpace=wrap;rounded=0;" vertex="1" parent="1">
          <mxGeometry x="410" y="1200" width="80" height="20" as="geometry" />
        </mxCell>
        <mxCell id="5nWp3kDjjZpovWfEtGyb-23" value="CANインターフェイス" style="text;html=1;strokeColor=none;fillColor=none;align=center;verticalAlign=middle;whiteSpace=wrap;rounded=0;fontSize=18;" vertex="1" parent="1">
          <mxGeometry x="700" y="1151" width="320" height="30" as="geometry" />
        </mxCell>
        <mxCell id="5nWp3kDjjZpovWfEtGyb-26" value="" style="endArrow=none;html=1;rounded=0;strokeWidth=2;fillColor=#ffe6cc;strokeColor=#d79b00;" edge="1" parent="1">
          <mxGeometry width="50" height="50" relative="1" as="geometry">
            <mxPoint x="170" y="1340" as="sourcePoint" />
            <mxPoint x="250" y="1340" as="targetPoint" />
          </mxGeometry>
        </mxCell>
        <mxCell id="5nWp3kDjjZpovWfEtGyb-27" value="I2C" style="text;html=1;strokeColor=none;fillColor=none;align=left;verticalAlign=middle;whiteSpace=wrap;rounded=0;fontSize=16;" vertex="1" parent="1">
          <mxGeometry x="260" y="1330" width="60" height="20" as="geometry" />
        </mxCell>
        <mxCell id="5nWp3kDjjZpovWfEtGyb-28" value="" style="endArrow=none;html=1;rounded=0;strokeWidth=2;fillColor=#d5e8d4;strokeColor=#82b366;" edge="1" parent="1">
          <mxGeometry width="50" height="50" relative="1" as="geometry">
            <mxPoint x="170" y="1360" as="sourcePoint" />
            <mxPoint x="250" y="1360" as="targetPoint" />
          </mxGeometry>
        </mxCell>
        <mxCell id="5nWp3kDjjZpovWfEtGyb-29" value="SPI" style="text;html=1;strokeColor=none;fillColor=none;align=left;verticalAlign=middle;whiteSpace=wrap;rounded=0;fontSize=16;" vertex="1" parent="1">
          <mxGeometry x="260" y="1350" width="60" height="20" as="geometry" />
        </mxCell>
        <mxCell id="5nWp3kDjjZpovWfEtGyb-30" value="" style="endArrow=none;html=1;rounded=0;strokeWidth=2;fillColor=#dae8fc;strokeColor=#6c8ebf;" edge="1" parent="1">
          <mxGeometry width="50" height="50" relative="1" as="geometry">
            <mxPoint x="170" y="1380" as="sourcePoint" />
            <mxPoint x="250" y="1380" as="targetPoint" />
          </mxGeometry>
        </mxCell>
        <mxCell id="5nWp3kDjjZpovWfEtGyb-31" value="CAN" style="text;html=1;strokeColor=none;fillColor=none;align=left;verticalAlign=middle;whiteSpace=wrap;rounded=0;fontSize=16;" vertex="1" parent="1">
          <mxGeometry x="260" y="1370" width="60" height="20" as="geometry" />
        </mxCell>
        <mxCell id="5nWp3kDjjZpovWfEtGyb-32" value="" style="endArrow=none;html=1;rounded=0;shape=link;fillColor=#f8cecc;strokeColor=#b85450;strokeWidth=4;" edge="1" parent="1">
          <mxGeometry width="50" height="50" relative="1" as="geometry">
            <mxPoint x="1100" y="1510" as="sourcePoint" />
            <mxPoint x="1100" y="1040" as="targetPoint" />
          </mxGeometry>
        </mxCell>
        <mxCell id="5nWp3kDjjZpovWfEtGyb-33" style="edgeStyle=orthogonalEdgeStyle;rounded=0;orthogonalLoop=1;jettySize=auto;html=1;endArrow=none;endFill=0;fillColor=#f8cecc;strokeColor=#b85450;strokeWidth=6;startArrow=block;startFill=1;" edge="1" parent="1">
          <mxGeometry relative="1" as="geometry">
            <mxPoint x="1100" y="1320" as="targetPoint" />
            <mxPoint x="620" y="1260" as="sourcePoint" />
            <Array as="points">
              <mxPoint x="620" y="1260" />
              <mxPoint x="620" y="1320" />
            </Array>
          </mxGeometry>
        </mxCell>
        <mxCell id="5nWp3kDjjZpovWfEtGyb-34" value="5V POWER LINE" style="text;html=1;strokeColor=none;fillColor=none;align=left;verticalAlign=middle;whiteSpace=wrap;rounded=0;fontSize=16;" vertex="1" parent="1">
          <mxGeometry x="260" y="1410" width="140" height="20" as="geometry" />
        </mxCell>
        <mxCell id="5nWp3kDjjZpovWfEtGyb-37" value="" style="endArrow=none;html=1;rounded=0;fillColor=#f8cecc;strokeColor=#b85450;strokeWidth=3;" edge="1" parent="1">
          <mxGeometry width="50" height="50" relative="1" as="geometry">
            <mxPoint x="170" y="1420" as="sourcePoint" />
            <mxPoint x="250" y="1419.5" as="targetPoint" />
          </mxGeometry>
        </mxCell>
        <mxCell id="5nWp3kDjjZpovWfEtGyb-38" value="12V POWER LINE" style="text;html=1;strokeColor=none;fillColor=none;align=left;verticalAlign=middle;whiteSpace=wrap;rounded=0;fontSize=16;" vertex="1" parent="1">
          <mxGeometry x="260" y="1430" width="140" height="20" as="geometry" />
        </mxCell>
        <mxCell id="5nWp3kDjjZpovWfEtGyb-39" value="" style="endArrow=none;html=1;rounded=0;fillColor=#f8cecc;strokeColor=#b85450;strokeWidth=6;" edge="1" parent="1">
          <mxGeometry width="50" height="50" relative="1" as="geometry">
            <mxPoint x="170" y="1440" as="sourcePoint" />
            <mxPoint x="250" y="1439.5" as="targetPoint" />
          </mxGeometry>
        </mxCell>
        <mxCell id="5nWp3kDjjZpovWfEtGyb-44" value="フォトカプラ" style="rounded=0;whiteSpace=wrap;html=1;" vertex="1" parent="1">
          <mxGeometry x="720" y="1390" width="120" height="60" as="geometry" />
        </mxCell>
        <mxCell id="5nWp3kDjjZpovWfEtGyb-45" value="センサー" style="rounded=0;whiteSpace=wrap;html=1;" vertex="1" parent="1">
          <mxGeometry x="520" y="1060" width="120" height="60" as="geometry" />
        </mxCell>
        <mxCell id="5nWp3kDjjZpovWfEtGyb-47" value="" style="endArrow=none;html=1;rounded=0;strokeWidth=2;fillColor=#e1d5e7;strokeColor=#9673a6;" edge="1" parent="1">
          <mxGeometry width="50" height="50" relative="1" as="geometry">
            <mxPoint x="170" y="1400" as="sourcePoint" />
            <mxPoint x="250" y="1400" as="targetPoint" />
          </mxGeometry>
        </mxCell>
        <mxCell id="5nWp3kDjjZpovWfEtGyb-48" value="SINGNAL" style="text;html=1;strokeColor=none;fillColor=none;align=left;verticalAlign=middle;whiteSpace=wrap;rounded=0;fontSize=16;" vertex="1" parent="1">
          <mxGeometry x="260" y="1390" width="60" height="20" as="geometry" />
        </mxCell>
      </root>
    </mxGraphModel>
  </diagram>
</mxfile>
